<svg xmlns="http://www.w3.org/2000/svg" viewBox="0 0 833 72" role="img" aria-label="NodeRoost"><path d="M 766 8 L 766 18 L 788 18 L 789 19 L 789 62 L 796 62 L 799 59 L 799 19 L 800 18 L 816 18 L 823 8 Z M 678 12 L 678 40 L 723 40 L 724 41 L 722 53 L 682 53 L 678 57 L 677 62 L 729 62 L 732 60 L 733 58 L 733 31 L 689 31 L 687 20 L 689 18 L 728 18 L 734 11 L 733 8 L 684 8 Z M 585 12 L 583 17 L 583 54 L 584 57 L 590 62 L 634 62 L 639 59 L 641 55 L 641 15 L 637 10 L 632 8 L 592 8 Z M 593 21 L 596 18 L 629 18 L 632 22 L 632 48 L 628 53 L 597 53 L 595 52 L 593 49 Z M 490 13 L 489 16 L 489 54 L 490 57 L 496 62 L 540 62 L 545 59 L 547 55 L 547 15 L 543 10 L 538 8 L 498 8 L 493 10 Z M 499 21 L 502 18 L 534 18 L 537 21 L 537 50 L 534 53 L 503 53 L 501 52 L 499 49 Z M 396 8 L 396 62 L 405 61 L 405 26 L 406 25 L 405 19 L 406 18 L 440 18 L 443 21 L 443 27 L 441 30 L 439 31 L 420 31 L 417 35 L 441 62 L 453 62 L 435 41 L 436 40 L 447 40 L 452 35 L 452 14 L 448 9 L 445 8 Z M 301 9 L 301 62 L 359 62 L 359 53 L 312 53 L 311 52 L 311 41 L 312 40 L 347 40 L 354 31 L 313 31 L 311 29 L 311 19 L 312 18 L 352 18 L 356 14 L 359 8 L 302 8 Z M 204 8 L 204 62 L 255 62 L 260 59 L 263 53 L 263 17 L 262 14 L 258 10 L 253 8 Z M 214 19 L 215 18 L 250 18 L 253 22 L 253 48 L 252 50 L 248 53 L 215 53 L 214 52 Z M 109 12 L 107 17 L 107 54 L 108 57 L 114 62 L 160 62 L 166 57 L 167 54 L 167 17 L 163 10 L 158 8 L 116 8 Z M 118 20 L 121 18 L 154 18 L 157 22 L 157 49 L 153 53 L 121 53 L 117 48 L 118 45 L 117 43 L 117 27 L 118 26 L 117 22 Z M 8 8 L 8 62 L 18 62 L 18 24 L 19 23 L 57 62 L 69 62 L 69 9 L 68 8 L 58 9 L 59 10 L 59 20 L 58 21 L 59 31 L 58 45 L 59 46 L 58 47 L 19 8 Z" fill="#111827" fill-rule="evenodd"/></svg>
